<?xml version="1.0" encoding="UTF-8" standalone="no" ?>
<!DOCTYPE svg PUBLIC "-//W3C//DTD SVG 1.1//EN" "http://www.w3.org/Graphics/SVG/1.1/DTD/svg11.dtd">
<svg xmlns="http://www.w3.org/2000/svg" xmlns:xlink="http://www.w3.org/1999/xlink" version="1.1" width="30" height="30" viewBox="0 0 500 500" xml:space="preserve">
<desc>Created with Fabric.js 4.6.0</desc>
<defs>
</defs>
<g transform="matrix(31.52 0 0 31.52 250 250)" id="ZV4evyndSD5aaHJ6qjXPu"  >
<path style="stroke: rgb(190,208,24); stroke-width: 0; stroke-dasharray: none; stroke-linecap: butt; stroke-dashoffset: 0; stroke-linejoin: miter; stroke-miterlimit: 4; fill: rgb(196,125,216); fill-rule: nonzero; opacity: 1;" vector-effect="non-scaling-stroke"  transform=" translate(0, 0)" d="M 0 -6.59824 C 3.64223 -6.59824 6.59824 -3.6422299999999996 6.59824 0 C 6.59824 3.64223 3.6422299999999996 6.59824 0 6.59824 C -3.64223 6.59824 -6.59824 3.6422299999999996 -6.59824 0 C -6.59824 -3.64223 -3.6422299999999996 -6.59824 0 -6.59824 z" stroke-linecap="round" />
</g>
<g transform="matrix(0.1 0 0 -0.1 250 250)" id="S9SU-g322KIZ9T5UCgKPC"  >
<path style="stroke: none; stroke-width: 1; stroke-dasharray: none; stroke-linecap: butt; stroke-dashoffset: 0; stroke-linejoin: miter; stroke-miterlimit: 4; fill: rgb(255,255,255); fill-rule: nonzero; opacity: 1;" vector-effect="non-scaling-stroke"  transform=" translate(0, 0)" d="M -1385.11494 1231.125 C -1471.11494 1195.125 -1526.11494 1145.125 -1564.11494 1067.125 C -1631.11494 932.125 -1610.11494 785.125 -1510.11494 679.125 C -1439.11494 604.125 -1372.11494 577.125 -1238.11494 568.125 C -1165.11494 564.125 -1132.11494 558.125 -1132.11494 550.125 C -1132.11494 543.125 -1143.11494 513.125 -1156.11494 483.125 C -1276.11494 211.125 -1284.11494 -128.875 -1177.11494 -419.875 C -1119.11494 -575.875 -1115.11494 -561.875 -1219.11494 -566.875 C -1290.11494 -569.875 -1320.11494 -576.875 -1364.11494 -597.875 C -1497.11494 -662.875 -1576.11494 -813.875 -1552.11494 -959.875 C -1539.11494 -1041.875 -1488.11494 -1129.875 -1427.11494 -1174.875 C -1357.11494 -1227.875 -1346.11494 -1231.875 -1259.11494 -1243.875 C -1153.11494 -1258.875 1215.88506 -1258.875 1307.88506 -1243.875 C 1432.88506 -1223.875 1517.88506 -1163.875 1569.88506 -1056.875 C 1598.88506 -997.875 1602.88506 -980.875 1602.88506 -904.875 C 1602.88506 -833.875 1598.88506 -810.875 1576.88506 -763.875 C 1542.88506 -691.875 1486.88506 -635.875 1411.88506 -598.875 C 1360.88506 -573.875 1337.88506 -568.875 1242.88506 -564.875 C 1116.88506 -558.875 1120.88506 -563.875 1163.88506 -466.875 C 1224.88506 -327.875 1247.88506 -198.875 1247.88506 10.125 C 1247.88506 209.125 1219.88506 343.125 1143.88506 518.125 C 1124.88506 562.125 1119.88506 559.125 1237.88506 573.125 C 1344.88506 584.125 1387.88506 604.125 1458.88506 675.125 C 1534.88506 750.125 1560.88506 819.125 1555.88506 930.125 C 1553.88506 990.125 1546.88506 1021.125 1529.88506 1054.125 C 1487.88506 1134.125 1439.88506 1183.125 1369.88506 1217.125 L 1302.88506 1250.125 L -12.114939999999933 1252.125 L -1327.11494 1255.125 z M -1169.11494 1155.125 C -960.1149399999999 1077.125 -944.1149399999999 780.125 -1144.11494 681.125 C -1209.11494 649.125 -1305.11494 646.125 -1367.11494 674.125 C -1496.11494 733.125 -1557.11494 895.125 -1498.11494 1020.125 C -1437.11494 1149.125 -1302.11494 1205.125 -1169.11494 1155.125 z M 247.88506 1147.125 C 557.8850600000001 1072.125 811.8850600000001 896.125 983.8850600000001 639.125 C 1110.88506 448.125 1168.88506 246.125 1168.88506 -5.875 C 1168.88506 -182.875 1125.88506 -369.875 1051.88506 -516.875 L 1027.88506 -564.875 L 692.8850600000001 -564.875 C 495.88506000000007 -564.875 356.88506000000007 -560.875 352.88506000000007 -555.875 C 349.88506000000007 -549.875 368.88506000000007 -529.875 394.88506000000007 -509.875 C 584.8850600000001 -367.875 683.8850600000001 -101.875 633.8850600000001 135.125 C 584.8850600000001 366.125 402.88506000000007 562.125 177.88506000000007 624.125 C 106.88506000000007 644.125 77.88506000000007 645.125 -438.11493999999993 645.125 C -737.1149399999999 645.125 -987.1149399999999 648.125 -996.1149399999999 651.125 C -1018.1149399999999 659.125 -1016.1149399999999 671.125 -986.1149399999999 710.125 C -898.1149399999999 825.125 -901.1149399999999 1013.125 -991.1149399999999 1125.125 C -1008.1149399999999 1146.125 -1018.1149399999999 1166.125 -1014.1149399999999 1170.125 C -1010.1149399999999 1173.125 -744.1149399999999 1175.125 -422.11493999999993 1172.125 C 126.88506000000007 1168.125 167.88506000000007 1167.125 247.88506000000007 1147.125 z M 1314.88506 1151.125 C 1389.88506 1115.125 1443.88506 1058.125 1463.88506 989.125 C 1500.88506 860.125 1441.88506 726.125 1323.88506 675.125 C 1278.88506 655.125 1142.88506 639.125 1103.88506 649.125 C 1086.88506 653.125 1051.88506 690.125 1004.8850600000001 753.125 C 880.8850600000001 915.125 751.8850600000001 1024.125 575.8850600000001 1116.125 C 526.8850600000001 1141.125 490.88506000000007 1164.125 493.88506000000007 1168.125 C 497.88506000000007 1172.125 672.8850600000001 1175.125 881.8850600000001 1175.125 L 1262.88506 1175.125 z M -440.11494 468.125 C -522.1149399999999 388.125 -546.1149399999999 356.125 -575.1149399999999 295.125 C -625.1149399999999 190.125 -643.1149399999999 116.125 -643.1149399999999 5.125 C -644.1149399999999 -190.875 -569.1149399999999 -356.875 -420.11493999999993 -484.875 C -342.11493999999993 -551.875 -290.11493999999993 -580.875 -187.11493999999993 -615.875 C -117.11493999999993 -639.875 -114.11493999999993 -639.875 450.88506000000007 -642.875 C 800.8850600000001 -644.875 1017.8850600000001 -649.875 1017.8850600000001 -654.875 C 1017.8850600000001 -660.875 1001.8850600000001 -686.875 982.8850600000001 -712.875 C 900.8850600000001 -827.875 900.8850600000001 -984.875 982.8850600000001 -1103.875 C 1001.8850600000001 -1131.875 1017.8850600000001 -1156.875 1017.8850600000001 -1159.875 C 1017.8850600000001 -1162.875 761.8850600000001 -1164.875 448.88506000000007 -1164.875 C -166.11493999999993 -1164.875 -191.11493999999993 -1162.875 -366.11493999999993 -1107.875 C -603.1149399999999 -1032.875 -832.1149399999999 -858.875 -973.1149399999999 -644.875 C -1045.11494 -535.875 -1068.11494 -489.875 -1104.11494 -384.875 C -1207.11494 -79.875 -1193.11494 202.125 -1059.11494 498.125 L -1029.11494 565.125 L -685.1149399999999 565.125 L -341.11493999999993 565.125 z M 137.88506 550.125 C 295.88506 508.125 447.88506 383.125 512.8850600000001 241.125 C 623.8850600000001 1.125 553.8850600000001 -281.875 343.88506000000007 -443.875 C 235.88506000000007 -527.875 134.88506000000007 -559.875 -12.114939999999933 -558.875 C -167.11493999999993 -556.875 -270.11493999999993 -513.875 -393.11493999999993 -396.875 C -644.1149399999999 -159.875 -609.1149399999999 264.125 -322.11493999999993 464.125 C -272.11493999999993 498.125 -210.11493999999993 527.125 -127.11493999999993 554.125 C -81.11493999999993 569.125 75.88506000000007 566.125 137.88506000000007 550.125 z M -1026.11494 -716.875 C -928.1149399999999 -862.875 -750.1149399999999 -1017.875 -577.1149399999999 -1109.875 C -538.1149399999999 -1129.875 -503.11493999999993 -1150.875 -497.11493999999993 -1155.875 C -492.11493999999993 -1160.875 -640.1149399999999 -1164.875 -883.1149399999999 -1164.875 L -1278.11494 -1164.875 L -1329.11494 -1139.875 C -1451.11494 -1078.875 -1506.11494 -921.875 -1448.11494 -799.875 C -1397.11494 -692.875 -1310.11494 -645.875 -1161.11494 -644.875 L -1076.11494 -644.875 z M 1370.88506 -668.875 C 1420.88506 -689.875 1466.88506 -732.875 1493.88506 -785.875 C 1548.88506 -895.875 1531.88506 -1002.875 1444.88506 -1088.875 C 1342.88506 -1189.875 1195.88506 -1192.875 1085.88506 -1095.875 C 1030.88506 -1047.875 1004.8850600000001 -975.875 1009.8850600000001 -887.875 C 1013.8850600000001 -824.875 1019.8850600000001 -807.875 1050.88506 -759.875 C 1070.88506 -729.875 1099.88506 -697.875 1113.88506 -687.875 C 1177.88506 -645.875 1295.88506 -636.875 1370.88506 -668.875 z" stroke-linecap="round" />
</g>
</svg>